<svg width="400" height="224.956" xmlns="http://www.w3.org/2000/svg" display="block"><path d="M382.796.239c-.25.13-.625.269-.833.309-.209.041.362.083 1.268.096l1.647.023-.423-.334c-.499-.392-1.03-.422-1.659-.094m8.704-.072c0 .217 1.116.217 1.25 0 .062-.101-.165-.167-.573-.167-.373 0-.677.075-.677.167m-388.667.474c0 .207.53.637.938.761.341.103.686-.556.427-.815-.145-.145-1.365-.097-1.365.054m8.667.097c0 .363-1.031 1.11-1.265.916-.213-.177-.735-.037-.735.197 0 .082-.469.156-1.042.164l-1.041.015.788.36c.434.198.79.433.792.523.001.09.584.749 1.295 1.465l1.291 1.303-.666-.091c-3-.407-3.152-.413-3.455-.139-.52.471-.329.549 1.338.549.959 0 1.709.075 1.815.182.132.132.277.132.523 0 .654-.35.862-.233.862.485 0 .65.014.666.583.666.702 0 .697.051.107-1.129-.557-1.115-.51-2.49.152-4.48.197-.593.319-1.119.27-1.168-.163-.163-.445.125-.445.454 0 .381-.108.393-.667.073-.318-.181-.348-.239-.125-.244.408-.008.367-.339-.042-.339-.183 0-.333.107-.333.238m3.12.463c-.474.802-.465.835.538 1.966l.665.75.005-.875c.006-1.007-.005-1.003 1.471-.554 1.183.36 1.133.456.552-1.071l-.317-.834-1.246-.048-1.246-.048-.422.714m4.453-.175c-.341.365-.398.493-.189.418.348-.124 1.102.622 1.111 1.098.003.16.09.291.195.291.104 0 .296.132.425.292.217.269.227.262.132-.084-.071-.258-.021-.408.158-.476.384-.148.319-.52-.143-.822-.222-.146-.48-.485-.574-.754-.219-.627-.506-.618-1.115.037m314.47-.318c-.561.708-.555.91.044 1.367l.58.442v-1.009c0-1.018-.224-1.305-.624-.8m2.124-.054c0 .085.173.366.384.625.212.259 1.11 1.421 1.997 2.582l1.613 2.11-1.68 2.027c-.923 1.114-1.653 2.05-1.622 2.078.151.135 2.15 1.091 2.282 1.091.083 0 .441-.544.796-1.209l.645-1.208.127 2.652c.07 1.458.098 2.68.063 2.715-.035.035-.88-.164-1.876-.442-.997-.278-1.906-.507-2.021-.507-.157-.001-.208.576-.208 2.332 0 1.283-.055 2.333-.123 2.333-.067 0-.935-.806-1.928-1.791l-1.806-1.792-.664.75c-1.188 1.342-1.191 1.333.404 1.333 1.756 0 1.728-.047.931 1.537-.825 1.643-.922 1.583 1.449.893 2.364-.687 2.298-.719 1.339.653-.423.605-.769 1.138-.769 1.185 0 .046.591-.436 1.313-1.073 1.722-1.517 2.662-2.064 3.43-1.997l.595.052-.945 1.332c-3.481 4.906-1.058 4.179 2.857-.857l1.704-2.192.211-2.433c.164-1.884.264-2.433.446-2.433 1.767 0 2.782-2.281 1.054-2.367-.563-.028-.983-.123-.958-.216.026-.101-.718-.2-1.874-.25l-1.916-.084-.325-3.619c-.179-1.991-.29-3.655-.246-3.699.06-.06 3.225.692 3.442.817.022.013-.136.746-.35 1.63l-.388 1.608 1.241.59c.683.324 1.301.553 1.373.508.072-.044.224.031.338.167.484.584 1.742.131 1.639-.591-.076-.535-.799-.8-1.48-.543-.459.174-.488.162-.419-.174.042-.198.158-1.035.26-1.86.101-.825.223-1.707.271-1.959l.087-.458h-5.347c-3.157 0-5.346.063-5.346.154m27.235.221c.059.206.193 1.031.296 1.833l.189 1.459h1.249l.098 1.583c.055.871.138 2.277.186 3.125l.086 1.542-.672.458c-.487.332-.878.458-1.42.458-.411 0-.747.03-.747.066 0 .145.854 5.61 1.081 6.916.164.943.34 1.466.539 1.609.163.116.926.705 1.695 1.308 1.287 1.009 1.449 1.09 2.011 1l.611-.098.323 6.388.323 6.388 1.073.587c.591.322 1.369.865 1.729 1.205l.655.619-.337.548c-.186.301-.927 1.051-1.646 1.666-1.466 1.253-1.489 1.33-.703 2.294l.562.689 1.749-.111c1.419-.09 4.079-.596 4.3-.817.028-.028.051-.697.051-1.487v-1.436h.462c.789 0 3.856-1.097 3.855-1.378 0-.022-.517-1.675-1.149-3.675l-1.149-3.636 1.145-.856 1.145-.857-.704-.451c-.388-.248-1.178-.747-1.756-1.109l-1.052-.657 1.343-.389 1.344-.388v-4.604l-1.959.001-1.958.001-.713 2.038-.712 2.037 1.171 1.059c.644.582 1.171 1.112 1.171 1.178 0 .14-2.001 1.576-2.078 1.492-.028-.031-.485-1.031-1.014-2.223-1.212-2.731-.947-2.542-2.837-2.018-2.072.575-2.075.55-.127-1.061 1.861-1.539 1.841-1.496 1.869-3.963l.02-1.708h.917c1.088 0 1.096-.035.353-1.481l-.548-1.065-.578 1.054c-.758 1.381-.908 1.399-1.046.123-.062-.576-.227-1.719-.366-2.539l-.254-1.491.384-.289c.211-.159.347-.317.302-.351l-.516-.333c-.31-.194-.472-.478-.563-.992l-.174-.969c-.025-.138-.128-.512-.228-.833-.298-.948-.219-1.313.508-2.349.809-1.154.792-1.149 1.6-.423 1.859 1.671 3.248 1.944 1.863.365-.6-.683-.549-.85.302-.999.345-.061 1.01-.219 1.479-.35l.851-.24.357-1.794c.196-.987.357-1.85.357-1.919 0-.069-.9-.125-2-.125-2.293 0-2.236-.058-1.25 1.297.932 1.281 1.005.985-.763 3.094-.065.077-.473-.016-.906-.208-.846-.374-.829-.302-.364-1.6.334-.933.489-2.25.264-2.25-.099 0-.697.158-1.33.35l-1.151.349v1.968h-2.5v-1.236c0-1.871.149-1.764-2.454-1.764h-2.252l.108.375m15.59 0c-.443.468-1.01 1.551-.881 1.68.104.105 1.332-.495 2.139-1.045.633-.432.693-.428.812.046.254 1.015 1.492 1.884 2.896 2.036l.792.085-1.197-.465-1.198-.465.733-.832c.954-1.083.955-1.082-.505-1.082-.722 0-1.25-.07-1.25-.166 0-.365-1.965-.19-2.341.208m10.63-.275c-.06.06.408.677 1.04 1.369l1.149 1.26-.414.492c-.517.614-.457 1.124.167 1.422.851.407 1.652.017 3.248-1.578 1.713-1.714 1.59-1.744 1.45.352l-.118 1.75h3.512l-.578-1.37c-.318-.754-.578-1.391-.578-1.417 0-.026.46-.047 1.023-.047h1.023l-.105-.875c-.057-.481-.105-1.006-.106-1.166-.002-.458-.879-.39-1.087.083-.231.526-1.563.647-1.692.155-.057-.219-.283-.357-.695-.425-.953-.158-1.06-.136-.954.198.077.242-.099.394-.871.75-1.224.565-1.174.576-1.235-.261l-.051-.709-2.009-.046c-1.105-.026-2.058.003-2.119.063m-367.789.483c0 .26.095.417.25.417.302 0 .323.194.05.467-.155.155-.142.2.058.2.61 0 .866-.599.458-1.068-.476-.548-.816-.554-.816-.016m7.065-.167c.226.171.402.191.625.072.459-.246.383-.322-.315-.316-.578.005-.601.023-.31.244m12.935-.083c0 .092.113.167.25.167.138 0 .25-.075.25-.167 0-.091-.112-.166-.25-.166-.137 0-.25.075-.25.166m344.49.096c-.292.352.102.623.554.381.248-.133.271-.215.113-.405-.253-.306-.398-.3-.667.024m-379.712.015c-.226.227-.101.556.212.556.416 0 .621-.327.323-.516-.278-.177-.39-.185-.535-.04m-1.278.369c0 .171-.047.546-.104.833l-.104.521h.854c1.008 0 1.011-.009.313-.937-.576-.765-.959-.931-.959-.417m28.44-.197c-.187.187-.114.384.144.384.137 0 .25-.071.25-.157 0-.21-.261-.361-.394-.227m359.111 1.517c-.855.639-.885.622-.877-.502l.007-1.048.585.663c.549.622.566.676.285.887m-385.217-1.133c0 .092.112.167.25.167.137 0 .25-.075.25-.167 0-.092-.113-.167-.25-.167-.138 0-.25.075-.25.167m-6.601.234c-.212.554.01 1.348.392 1.403.347.049.375-.011.375-.792 0-.853-.516-1.264-.767-.611m106.801.299c-.331.331-.228.634.216.634.334 0 .417-.084.417-.417 0-.444-.303-.547-.633-.217m-71.034.134c0 .091.113.166.25.166.138 0 .25-.075.25-.166 0-.092-.112-.167-.25-.167-.137 0-.25.075-.25.167m8.667 0c0 .091.112.166.25.166.137 0 .25-.075.25-.166 0-.092-.113-.167-.25-.167-.138 0-.25.075-.25.167m-42.167.333c0 .092.113.167.25.167.138 0 .25-.075.25-.167 0-.092-.112-.167-.25-.167-.137 0-.25.075-.25.167m332.06.585c-.123.32.225.748.607.748s.73-.428.607-.748c-.057-.149-.305-.252-.607-.252s-.55.103-.607.252m-320.226.332c0 .152.08.251.179.218.098-.033.179-.131.179-.218s-.081-.186-.179-.218c-.099-.033-.179.065-.179.218m-1.328.159c-.159.193-.146.321.063.621.373.532.334.636-.235.636-.572 0-.745.923-.25 1.334.137.114.25.299.25.41 0 .216 1.633 1.179 1.769 1.043.044-.044-.187-.362-.512-.707-.481-.51-.59-.753-.587-1.311l.004-.685.326.416.326.417.003-.375c.005-.447.335-.502.447-.075.102.39.766.822.855.556.035-.104.244-.189.466-.189.359 0 .403-.073.403-.667 0-.753-.297-.874-.976-.398-.365.256-1.57-.445-1.274-.741.143-.143-.283-.528-.584-.528-.161 0-.383.11-.494.243m8.068.004c-.28.214-.29.269-.074.414.2.134.163.168-.18.17-.622.004-.649.095-.301 1.011l.313.825h-.406c-.696 0-.623.279.215.816.898.577.996.608.973.309-.022-.29.241-1.458.328-1.458.039 0 .376.155.748.345.952.486.943.325-.023-.412-.741-.566-.837-.714-.934-1.448-.119-.891-.176-.941-.659-.572m.76-.094c0 .084.375.383.833.665l.833.513v-1.331h-.833c-.458 0-.833.069-.833.153m326.267.319c-.146.237.318.549.635.427.153-.058.251-.191.217-.294-.079-.24-.724-.341-.852-.133m-31.647.53c-.238.278-.287.686-.287 2.381v2.045l.936 1.128c.515.62.955 1.105.978 1.078.213-.254.244-6.467.032-6.467-.134 0-.287-.113-.34-.25-.139-.364-.981-.309-1.319.085m-309.037-.002c-.057.092.051.167.24.167s.343-.075.343-.167c0-.091-.108-.166-.24-.166s-.286.075-.343.166m9.417-.009c0 .209.678.676.982.676.172 0 .129-.121-.149-.417-.392-.417-.833-.554-.833-.259m359.833-.107c0 .039.232.362.516.718l.515.648-1.432.048c-1.64.056-1.68.106-.744.952 1.377 1.244 3.42 1.641 4.309.836.532-.482.428-.643-1.206-1.867-1.647-1.233-1.958-1.446-1.958-1.335m-376.5 2.2c0 2.2.172 2.237 2.042.44l.791-.761v.619c0 1.119 1.038.919 1.58-.306l.408-.924.522.27c.738.382.769.211.073-.399-.684-.602-2.583-.802-2.583-.273 0 .314.014.316-.856-.079-.4-.182-1.008-.332-1.352-.334l-.625-.003v1.75m22.667-1.417c0 .092.112.167.25.167.137 0 .25-.075.25-.167 0-.092-.113-.167-.25-.167-.138 0-.25.075-.25.167m284.333 1.186c0 .512 1.193 1.647 1.73 1.647.638 0 .54-.295-.396-1.197-.9-.867-1.334-1.013-1.334-.45m-291.171.522c-.284.626-.41 1.122-.287 1.127.023.001.395.109.828.241l.787.239.346-.486.345-.485-.608.254c-.755.316-.838.242-.49-.431.256-.496.255-.552-.014-.849-.415-.459-.547-.402-.907.39m381.838-.497c-.592.267-.593.268-.24.526.313.228.313.239.003.581-.313.347-.312.349.211.349.52 0 .526-.01.526-.834 0-.458-.019-.828-.042-.822l-.458.2m1.429.384c-.194.194-.219.342-.095.574.316.591.499.532.499-.159 0-.756-.032-.788-.404-.415m-393.485 1.417l.107 1.513-.567-.054c-.529-.051-.565-.092-.525-.596.049-.629-.262-.729-.597-.193-.187.3-.175.381.085.578.265.201.129.23-1.088.235-1.143.004-1.465-.054-1.814-.328-.772-.608-1.212-.457-1.212.416 0 .802.201.958.539.417.308-.494.445-.41.565.345.06.372.206.775.325.893.214.215 1.872.516 2.021.368.136-.136-.287-.773-.513-.773-.12 0-.354-.15-.52-.333-.405-.447-.248-.421.879.148.525.264 1.235.597 1.578.741l.624.26-.325-.637c-.369-.724-.304-.885.296-.734.34.085.4.054.316-.164-.078-.202.145-.402.897-.802.572-.305.967-.619.922-.734-.042-.11-.175-.623-.295-1.139l-.218-.939h-1.5870000000000002l.107 1.512m375.806-1.345c-.151.244.058.5.408.5.309 0 .57-.384.386-.567-.159-.16-.682-.115-.794.067m-352.287.55l-.453.34.453.837.453.836.052-.615c.029-.338.029-.868 0-1.176l-.052-.562-.453.34m302.703.132c0 .518 1.414 1.818 1.978 1.818.407 0 .156-.7-.478-1.334-.639-.639-1.5-.917-1.5-.484m57.417.239c.622.511.719.51 1.417-.005l.564-.416-1.24.006-1.241.006.5.409m-362.429.566c-.75.75-.628 1.122.184.562.509-.351.824-.754.72-.922-.146-.237-.416-.129-.904.36m369.531-.32c-.311.073-1.314.187-2.23.253-1.639.117-1.669.126-1.847.599l-.181.481h-4.912l-.091.541c-.584 3.475-.616 3.292.576 3.292.96 0 1-.017 1-.425 0-.926.633-1.629 2.363-2.626 1.028-.592 1.02-.597.892.509l-.111.959 1.053.406c1.645.634 3.786 1.746 4.935 2.563 1.555 1.105 1.701 1.007 1.701-1.144 0-1.655-.014-1.721-.374-1.772-.315-.045-.462-.319-.92-1.72-.474-1.451-.865-2.127-1.196-2.066l-.658.15m-394.685.16c0 .216.457.442 1.166.578l.584.112-.468-.425c-.456-.415-1.282-.586-1.282-.265m22.166.506c-.266.523-.434.667-.779.667-.52 0-.319.295.811 1.191l.615.488 1.635-.316c1.906-.369 1.885-.374 1.885.48v.657l.958-.004.959-.004-.761-.705c-1.289-1.193-1.389-1.244-2.677-1.364-1.714-.159-1.812-.2-1.812-.755 0-.392.087-.494.498-.585.83-.182.745-.417-.152-.417-.812 0-.851.022-1.18.667m325 .417c0 1.129.078 1.226.72.896 1.536-.792 1.461-1.98-.125-1.98h-.595v1.084m-337.92-.412c-.064.105-.039.269.057.365.224.224.746.029.655-.245-.093-.279-.564-.358-.712-.12m24.292.193c.103.309.462.36.462.066 0-.145-.119-.264-.264-.264-.145 0-.234.089-.198.198m-25.955.246l-.661.486c-.308.221-.311.253-.046.518.155.155.308.249.34.209.192-.248.789-1.374.749-1.414-.027-.027-.199.063-.382.201m7.987.035c.05.08.617.459 1.26.841.643.382 1.17.804 1.17.937 0 .273.426.331.581.08.152-.246-.6-1.17-.952-1.17-.169 0-.677-.188-1.129-.417-.88-.446-1.073-.502-.93-.271m-3.331.479c.142.598.64 1.278.987 1.346.476.094.343-.842-.194-1.356-.62-.594-.936-.59-.793.01m19.427.209c0 .091.113.166.25.166.138 0 .25-.075.25-.166 0-.092-.112-.167-.25-.167-.137 0-.25.075-.25.167m-22.407.152c-.112.181.832.935 1.991 1.592l.833.471-.417-.463c-.997-1.11-2.212-1.917-2.407-1.6m10.181-.037c-.188.188-.115.385.143.385.137 0 .25-.071.25-.157 0-.21-.26-.361-.393-.228m-11.107.104c0 .157.367 2.08.451 2.364l.098.333.131-.333c.222-.569.166-1.658-.106-2.046-.217-.309-.574-.507-.574-.318m305.282.242c-.2.044-.284.189-.25.428.071.497 1.218.541 1.218.046 0-.341-.488-.581-.968-.474m56.833.406c.406 2.027.469 2.077 2.696 2.113 1.15.018 1.222-.001 1.141-.314-.104-.396.134-.451.282-.064.221.574 1.099-.68 1.099-1.569v-.484l-1.375-.107c-.756-.059-1.954-.107-2.662-.108l-1.288-.001.107.534m-349.833.239c-.133.133.018.394.228.394.086 0 .157-.113.157-.25 0-.258-.197-.331-.385-.144m-13.858.215c-.123.2.19.398.412.26.186-.115.064-.415-.169-.415-.081 0-.19.07-.243.155m299.615.599c-1.837.919-1.8 1.403.116 1.54l1.178.084v-1.105c0-.608-.027-1.106-.061-1.106-.033 0-.588.264-1.233.587m24.064-.087c-.356.269-.687.529-.736.578-.049.049.988.089 2.305.089 1.317 0 2.323-.061 2.236-.134-.133-.113-1.566-.584-2.825-.929-.214-.059-.564.082-.98.396m-306.77-.167c0 .092.113.167.25.167.138 0 .25-.075.25-.167 0-.091-.112-.166-.25-.166-.137 0-.25.075-.25.166m-5.166.167c0 .092.112.167.25.167.137 0 .25-.075.25-.167 0-.092-.113-.167-.25-.167-.138 0-.25.075-.25.167m3.333.061c0 .125.154.423.342.662.188.239.368.57.4.735.032.164.234.597.449.962l.392.663.05-1.061c.054-1.128-.021-1.367-.331-1.057-.146.146-.265.031-.489-.47-.283-.631-.813-.915-.813-.434m-8.883.211c-.263.262-.107.583.258.531.206-.029.375-.164.375-.301 0-.265-.439-.424-.633-.23m11.883.228c0 .092.113.167.25.167s.25-.075.25-.167c0-.092-.113-.167-.25-.167s-.25.075-.25.167m-21.05.273c-.064.064-.117.328-.117.588 0 .289-.081.456-.208.431-.141-.029-.225.246-.259.851l-.051.893.509-.363c.28-.199.51-.489.511-.643 0-.154.296-.449.658-.655.758-.433.963-.474.683-.136-.16.192-.117.292.219.512.23.151.383.367.339.48-.145.377.649.621 1.852.569l1.16-.05-1.467-1.208c-1.417-1.167-1.498-1.209-2.36-1.209-.49 0-.996-.039-1.122-.088-.127-.049-.283-.036-.347.028m20.806.218c-.161.26.05.509.433.509.229 0 .318-.092.28-.29-.064-.332-.551-.482-.713-.219m-8.323.15c-.058.093-.024.219.075.281.257.158.422-.059.208-.273-.12-.119-.213-.122-.283-.008m-15.009.514c-.123.2.19.397.412.26.186-.115.064-.415-.169-.415-.081 0-.19.07-.243.155m7.513.059c-.276.202-.273.232.052.526.341.309.344.307.344-.214 0-.6-.001-.601-.396-.312m1.563.119c-.435.435-.42.574.083.803.407.186.417.174.417-.473 0-.759-.042-.787-.5-.33m16.117-.228c-.262.262-.096.562.312.562.318 0 .414-.075.373-.29-.058-.303-.484-.472-.685-.272m323.911.92l-1.223.885.44.378c.885.761 2.266-.435 2.06-1.785-.051-.337-.142-.3-1.277.522m-351.974-.426c-.105.275.405 1.082.759 1.2.149.049.194-.111.156-.555-.059-.7-.716-1.163-.915-.645m4.113.568c0 .091.112.166.25.166.137 0 .25-.075.25-.166 0-.092-.113-.167-.25-.167-.138 0-.25.075-.25.167m11.833 0c0 .091.112.166.25.166.137 0 .25-.075.25-.166 0-.092-.113-.167-.25-.167-.138 0-.25.075-.25.167m-12.667.166c0 .092.113.167.25.167.138 0 .25-.075.25-.167 0-.091-.112-.166-.25-.166-.137 0-.25.075-.25.166m7.5 0c0 .092.155.167.344.167.188 0 .296-.075.24-.167-.057-.091-.211-.166-.344-.166-.132 0-.24.075-.24.166m2.647.335c-.868.507-.862.968.018 1.415l.835.423v-1.003c0-1.056-.178-1.23-.853-.835m14.52.082c0 .156.157.25.417.25.259 0 .416-.094.416-.25s-.157-.25-.416-.25c-.26 0-.417.094-.417.25m357.833.446c-2.236.929-2.813 1.642-1.958 2.421 1.062.967 1.319.935 3.122-.383 1.683-1.23 1.669-1.205 1.067-1.995-.531-.696-.653-.698-2.231-.043m-383.475.296c.037.11.121.194.188.187.199-.02.161-.249-.054-.321-.11-.036-.17.024-.134.134m313.507.3c.035.184.208.291.468.291s.433-.107.469-.291c.043-.228-.059-.292-.469-.292-.409 0-.512.064-.468.292m-295.532.208c0 .092.113.167.25.167.138 0 .25-.075.25-.167 0-.092-.112-.167-.25-.167-.137 0-.25.075-.25.167m8.093.245c.416.314.65.316.907.005.179-.216.109-.25-.511-.25-.668 0-.696.017-.396.245m-13.093.255c0 .092.113.167.25.167.138 0 .25-.075.25-.167 0-.092-.112-.167-.25-.167-.137 0-.25.075-.25.167m1.334 0c0 .092.112.167.25.167.137 0 .25-.075.25-.167 0-.092-.113-.167-.25-.167-.138 0-.25.075-.25.167m-7.302.34c-.704.656.342.735 1.084.082l.468-.411-.594-.006c-.373-.003-.729.121-.958.335m-3.258-.058c-.188.188-.115.385.143.385.138 0 .25-.071.25-.157 0-.21-.26-.361-.393-.228m-4.269 1.04l-.58.481.413.351c.944.805.996.789.996-.315 0-1.148-.039-1.172-.829-.517m21.662.678c0 .732.023.753.553.477.537-.279.536-.277.113-.728-.538-.572-.666-.524-.666.251m2.5.01c0 .286.272.682.855 1.246l.855.827-.464-.833c-.255-.458-.64-1.019-.855-1.246l-.391-.413v.419m321.032-.052c.035.184.208.292.468.292s.433-.108.468-.292c.044-.228-.058-.291-.468-.291-.41 0-.512.063-.468.291m31.326.096c-.152.183-.14.282.054.443.327.27.795.085.723-.286-.071-.371-.524-.462-.777-.157m-370.025 1.426c0 .839.421 1.25.654.638.087-.231.239-.468.336-.528.443-.274.184-.757-.406-.757-.567 0-.584.019-.584.647m386.08.237c.06.477.25 1.916.423 3.2.173 1.283.405 3.308.516 4.5.111 1.191.288 2.241.393 2.333.106.092.241.296.3.453.059.158.313.339.564.402.252.063.786.365 1.187.671.401.307.859.557 1.017.557.158 0 .377.09.487.2.156.156.2-1.252.2-6.333v-6.533h-1c-1.075 0-1.112.033-.75.666.131.23.241.47.244.534.003.065-.825-.25-1.842-.699l-1.848-.817.109.866m-392.246.616c0 .092.112.167.25.167.137 0 .25-.075.25-.167 0-.091-.113-.166-.25-.166-.138 0-.25.075-.25.166m-1.834.5c0 .092.113.167.25.167.138 0 .25-.075.25-.167 0-.091-.112-.166-.25-.166-.137 0-.25.075-.25.166m14.375-.056c-.345.139-.241.36.472 1.004l.679.614-.971.455-.971.455.932.014c1.565.024 1.838-.542.887-1.838-.604-.822-.652-.856-1.028-.704m5.576-.005c-.138.137-.16 1.228-.026 1.228.55 0 1.083-.549.86-.886-.253-.382-.637-.54-.834-.342m3.133.999l-.334.25.334.248c.296.22.339.219.387-.011.119-.571-.028-.755-.387-.487m-16.16.217c-.123.2.19.398.412.26.187-.115.064-.415-.169-.415-.081 0-.19.07-.243.155m-4.997.757c.416.314.649.316.907.005.179-.216.108-.25-.512-.25-.668 0-.696.017-.395.245m3.256.195l-.401.282.401.326c.4.325.401.325.454-.03.111-.734-.012-.89-.454-.578m-5.171.334c-.363.461-.238.893.259.893.324 0 .288.131-.187.697-.23.272-.417.564-.417.649 0 .235.268.183.5-.096.364-.439 1.167-.324 1.167.166 0 .42.226.558.415.252.098-.159-1.142-3.002-1.309-3.002-.045 0-.238.198-.428.441m11.322-.274c0 .092.112.167.25.167.137 0 .25-.075.25-.167 0-.092-.113-.167-.25-.167-.138 0-.25.075-.25.167m-4.627.629c-.625.523-.655.631-.235.856.258.138.359.05.664-.578.415-.854.328-.91-.429-.278m2.627.038c0 .091.112.166.25.166.137 0 .25-.075.25-.166 0-.092-.113-.167-.25-.167-.138 0-.25.075-.25.167m-7.334.25c-.165.199-.165.3 0 .5.322.387.5.297.5-.25 0-.548-.178-.637-.5-.25m5.5.916c0 .092.113.167.25.167.138 0 .25-.075.25-.167 0-.091-.112-.166-.25-.166-.137 0-.25.075-.25.166m4.334 1.167c0 .092.112.167.25.167.137 0 .25-.075.25-.167 0-.092-.113-.167-.25-.167-.138 0-.25.075-.25.167m6.833 0c0 .092.112.167.25.167.137 0 .25-.075.25-.167 0-.092-.113-.167-.25-.167-.138 0-.25.075-.25.167m-1.056.111c-.191.192-.121.389.139.389.138 0 .25-.113.25-.25 0-.26-.197-.331-.389-.139m1.799.067c-.117.189.373.641.704.65.108.003.22.174.25.38.053.377 1.303.695 1.303.331 0-.237-.748-.872-1.027-.872-.14 0-.39-.15-.556-.334-.34-.375-.513-.415-.674-.155m-13.136.104c-.188.188-.115.385.143.385.138 0 .25-.071.25-.157 0-.21-.26-.361-.393-.228m-6.529.56c-.161.26.592.51 1.379.459l.779-.051-1.035-.274c-.57-.151-1.075-.211-1.123-.134m4.006.436c-.549.132-1.674.293-2.5.356-1.388.107-1.505.144-1.554.491-.048.338.016.375.645.375.748 0 .72-.07.393.984-.07.226.001.349.249.428.977.31 1.224 1.331.257 1.064-1.335-.368-1.368-.082-.074.631 1.844 1.017 1.924 1.027 1.924.24 0-.783 1.11-2.554 1.506-2.402.172.066.237-.046.237-.413 0-.681-.952-.411-1.034.293-.046.395-.119.429-1.028.476l-.979.05.117-.466c.151-.601.392-.885.753-.885.158 0 .64-.187 1.071-.417 1.018-.541 1.433-.544 1.433-.012 0 .439.875 1.429 1.263 1.429.13 0 .237-.113.237-.25s-.112-.25-.25-.25c-.181 0-.25-.185-.25-.667 0-1.256-.563-1.502-2.416-1.055m8.083.153c0 .145.089.234.198.197.309-.103.36-.461.066-.461-.146 0-.264.118-.264.264m15.538-.066c.103.309.462.36.462.066 0-.146-.119-.264-.264-.264-.145 0-.234.089-.198.198m-19.038.718c.279.297.562.415.987.412l.596-.006-.468-.411c-.283-.249-.672-.411-.987-.411h-.52l.392.416m2.166.25c0 .092.108.167.24.167.133 0 .287-.075.344-.167.056-.091-.052-.166-.24-.166-.189 0-.344.075-.344.166m8.167 0c0 .092.112.167.25.167.137 0 .25-.075.25-.167 0-.091-.113-.166-.25-.166-.138 0-.25.075-.25.166m3.667 0c0 .092.108.167.24.167s.286-.075.343-.167c.057-.091-.051-.166-.24-.166s-.343.075-.343.166m321.031.459c.085.451.969.499.969.052 0-.273-.106-.344-.513-.344-.397 0-.499.065-.456.292m-334.591 1.657c-.188.188-.115.384.143.384.137 0 .25-.07.25-.156 0-.211-.26-.361-.393-.228m-3.274.218c0 .091.113.166.25.166.138 0 .25-.075.25-.166 0-.092-.112-.167-.25-.167-.137 0-.25.075-.25.167m11.334 0c0 .091.112.166.25.166.137 0 .25-.075.25-.166 0-.092-.113-.167-.25-.167-.138 0-.25.075-.25.167m-5.875.513c-.297.173-.408.653-.151.653.077 0 .265-.137.417-.304.456-.505.316-.688-.266-.349m331.965 1.399l-.798 1.564.07 1.586c.133 3.053 1.212 3.296 1.384.313.063-1.077.167-2.62.233-3.428.155-1.907.066-1.91-.889-.035m-323.815-1.108c-.456.505.208 1.029 1.302 1.029.053 0-.057-.3-.244-.667-.374-.733-.639-.824-1.058-.362m371.121.771c-.127.331.062.591.429.591.373 0 .551-.39.295-.646-.26-.26-.613-.233-.724.055m-73.989.106c-.156.253.163.528.531.457.5-.096.5-.638 0-.638-.23 0-.469.081-.531.181m-315.657.593c-.753.394-1.367 1.434-.693 1.175.123-.047.622.133 1.11.399.487.267.914.485.948.485.034 0-.235-.402-.598-.893-.612-.828-.64-.913-.386-1.167.335-.335.263-.335-.381.001m6.25.059c0 .092.112.167.25.167.137 0 .25-.075.25-.167 0-.092-.113-.167-.25-.167-.138 0-.25.075-.25.167m-5 .156c0 .098.056.18.125.183.628.03 1.06.795.806 1.427l-.26.651.666-.732c.52-.571.624-.781.477-.958-.104-.125-.127-.227-.051-.227.075 0 .065-.066-.022-.147-.252-.235-1.741-.402-1.741-.197m380.027.561c-.24.29-.088.45.429.45.292 0 .386-.08.346-.29-.071-.368-.524-.462-.775-.16m-377.449.125c-.159.256.058.421.272.207.12-.119.123-.213.009-.283-.093-.058-.22-.024-.281.076m392.648.077c-.161.42.33.811.854.68.336-.084.429-.199.389-.48-.068-.474-1.076-.636-1.243-.2m-393.226 1.745c0 .182.222.576.495.875l.495.544.005-.552c.002-.304-.073-.698-.168-.875-.232-.434-.827-.428-.827.008m1.166.347c0 .098.087.339.192.535l.191.358.143-.384c.078-.211.1-.452.048-.535-.13-.211-.574-.19-.574.026m368.834.416c0 .37-.259.283-.288-.097-.014-.186.045-.294.131-.24.086.053.157.204.157.337m-350.077.061c-.123.2.191.398.413.26.186-.115.064-.415-.17-.415-.081 0-.19.07-.243.155m4.243.276c0 .294.359.243.462-.066.036-.109-.053-.198-.198-.198-.145 0-.264.119-.264.264m-24.712.192c-.266.296-.27.351-.038.544.333.276.456.143.388-.421-.054-.446-.058-.447-.35-.123m-1.954.044c0 .092.112.167.25.167.137 0 .25-.075.25-.167 0-.092-.113-.167-.25-.167-.138 0-.25.075-.25.167m397.25.255l-.5.41.541.001c.467.001.542-.057.542-.416 0-.501.034-.501-.583.005m-393.239 1.483c-.203.216-.3.437-.215.489.085.053.322-.081.525-.298.204-.217.301-.437.215-.49-.085-.052-.321.082-.525.299m337.127-.154c-.09.09.137 1.964.301 2.485.162.516.342.003.476-1.361.115-1.172-.23-1.671-.777-1.124m54.627.687c-.165.43.283.795.815.661.336-.084.429-.199.389-.48-.069-.483-1.033-.629-1.204-.181m-370.412.829c-.476.877-.49.957-.245 1.332.248.377.241.407-.132.556-.373.149-.366.158.134.168.577.012.549.087.815-2.114.134-1.106.053-1.097-.572.058m372.022-.323c-.307.124-.254.463.125.806.327.297.333.291.333-.307 0-.603-.054-.662-.458-.499m-395.6.968c-.107.278.141.493.391.338.25-.154.201-.583-.065-.583-.128 0-.275.11-.326.245m-2.442.172c.114.137.339.25.5.25.161 0 .386-.113.5-.25.179-.216.11-.25-.5-.25s-.679.034-.5.25m.529 2.041c.031.168.585.57 1.3.944l1.245.653-.308-.486c-.805-1.266-2.413-2.065-2.237-1.111m2.471-.125c0 .092.112.167.25.167.137 0 .25-.075.25-.167 0-.091-.113-.166-.25-.166-.138 0-.25.075-.25.166m376.708.505c-.919.527-1.151.995-.493.995.233 0 .67-.293 1.118-.75.858-.873.628-.963-.625-.245m14.959.079c.464.493.783.516 1.291.092.549-.457.482-.509-.654-.509h-1.029l.392.417m-373.427 1.338c.178.135.37.245.427.245.056 0 .248-.11.426-.245.3-.227.269-.244-.426-.244-.696 0-.727.017-.427.244m373.51.157c.617.505.563.505 1.167.01l.5-.41-1.084-.005-1.083-.005.5.41m-393.568.332c.898.331 1.692.756 2.091 1.121.234.213.536.307.876.272l.519-.054-.981-.791c-.947-.764-1.018-.792-2.042-.78l-1.062.011.599.221m20.722.172c-.34.261-.113.567.813 1.099.255.147-.107-.884-.458-1.305-.018-.022-.178.071-.355.206m-20.737 1.084c0 .651.014.667.583.667s.583-.016.583-.667-.014-.667-.583-.667-.583.016-.583.667m393.404-.372c-.098.067-.227.253-.286.414-.059.16-.26.291-.446.291-.187 0-.339.08-.339.178 0 .349 1.656-.394 1.792-.804.075-.224-.429-.28-.721-.079m-370.904.705c0 .092.112.167.25.167.137 0 .25-.075.25-.167 0-.091-.113-.166-.25-.166-.138 0-.25.075-.25.166m-19.867.534c.156.155.244.155.4 0 .156-.156.111-.2-.2-.2s-.356.044-.2.2m16.996.059c.336.235.406.235.741 0 .359-.251.348-.259-.37-.259s-.73.008-.371.259m-17.042.734c-.055.088.222.324.614.524.649.331.69.336.464.048-.517-.656-.9-.859-1.078-.572m338.788.617c-.288.116-.262.5.041.617.334.128.75-.044.75-.311 0-.167-.415-.469-.555-.403l-.236.097m-323.761.664c-.217.217-.113.392.233.392.194 0 .318-.087.281-.198-.081-.243-.359-.348-.514-.194m-19.781.559c0 .183.066.333.146.333.219 0 .534-.43.408-.557-.228-.228-.554-.096-.554.224m5.467.2c.155.156.244.156.4 0 .155-.156.111-.2-.2-.2s-.356.044-.2.2m19.366 1.383c.258.311.491.31.907-.005.301-.227.273-.245-.395-.245-.62 0-.691.035-.512.25m289.248.476c-1.753.816-2.589 2.085-1.623 2.461.912.355 2.103-.772 2.618-2.478.141-.468.043-.466-.995.017m66.742.37c-.233.281.003.563.474.568.315.004.455-.507.186-.678-.324-.205-.411-.19-.66.11m-351.156 1.404c0 .092.112.167.25.167.137 0 .25-.075.25-.167 0-.091-.113-.166-.25-.166-.138 0-.25.075-.25.166m364.6.519c-.046.219-.128 1.41-.182 2.648-.144 3.295-.214 3.698-.603 3.49-.377-.202-.38-.162-.065 1.01.135.504.247 1.56.248 2.347l.002 1.43.701.612c.679.591.744.611 2 .611h1.299v.833c0 .961-.411 1.131-1.212.5-.234-.183-.572-.333-.753-.333-.18 0-.421-.113-.535-.25-.118-.142-.482-.25-.842-.25h-.634l-.084.875-.27 2.875c-.302 3.241-.243 3.081-1.147 3.1l-.773.016.625.256c.507.208.625.342.625.713 0 .251.048.71.106 1.019l.107.563-.534-.5c-.294-.275-.624-.688-.733-.917-.275-.576-2.113-.738-2.113-.185 0 .283.081.318.569.238 1.168-.189 2.764 1.579 2.764 3.063 0 .852.017.884.459.889.252.003.673.195.937.426l.478.421-.353.376c-.195.207-.354.494-.354.637 0 .144-.105.348-.234.455-.128.106-.279.375-.334.596-.093.369-.195.406-1.225.451l-1.124.05.597.371c1.104.686 1.113 1.031.067 2.488-1.154 1.609-1.186 1.793-.227 1.297.406-.21.553-.22.755-.053.215.179.172.25-.304.505l-.554.297.791-.1.792-.101v4.401l-.48.403-.48.404.216 1.127c.209 1.086.204 1.138-.145 1.424-.608.498-2.483 1.556-3.307 1.864-1.668.624-1.752 1.033-.304 1.471.504.152 1.198.509 1.542.793.681.563.845.955.27.647-.503-.269-1.491.656-1.072 1.003.222.184.26.164.26-.138 0-.469-.046-.486 1.53.563.757.504 1.435.917 1.507.917.262 0 .117.336-.398.923-.347.394-.631.574-.828.523-.695-.182-.779 3.544-.099 4.435.559.734.569.6-.129 1.691-.715 1.118-.73.978.167 1.595l.75.516v1.283c0 1.966-.319 4.887-.593 5.437-.325.652-.204.735 1.263.866.867.077 1.462.236 1.955.52l.708.409v-.995c0-.682-.079-1.061-.25-1.203-.657-.545.255-1.305.962-.801l.466.332-.047 1.776-.047 1.776-.542-.001c-.499-.002-.542.04-.542.534 0 .604-1.429 1.912-2.786 2.55-.497.234-.741.468-.821.787-.203.809-.907 1.227-1.38.821-.734-.632-1.271-.615-1.932.062-.537.55-.681.618-1.03.485-.585-.223-.884-.19-.884.096 0 .191-.206.248-.875.243-.645-.004-6.789-.425-7.083-.485-.023-.005-.042-.571-.042-1.258v-1.25h-.643c-.764 0-1.645.531-2.607 1.573l-.667.722-2.56-.195c-3.008-.228-2.77-.404-2.649 1.955.16 3.134.708 3.724 2.859 3.076l1.383-.418.108 2.602c.06 1.431.108 3.133.109 3.782v1.181l2.292.486 2.292.487.046 2.3c.042 2.086.073 2.294.333 2.218.158-.045.625-.167 1.037-.269.413-.102.978-.257 1.257-.344l.507-.159-.358-2.43c-.251-1.709-.302-2.449-.173-2.495.101-.036.69-.085 1.308-.11l1.123-.046-.787-.971-.788-.971-.336.393c-.185.216-.614.728-.954 1.138l-.618.745-.501-.584c-.814-.948-3.346-6.313-3.346-7.09 0-.042.525-.076 1.166-.076h1.167v-.667c0-.367.019-.673.042-.681.206-.071 9.57-.601 9.659-.547.226.138-.047.492-.614.797-.479.259-1.087 1.308-1.087 1.877 0 .03.41.054.912.054.873 0 .968.046 2.209 1.056l1.296 1.056.083 7.486.083 7.485.396.638c.478.767.388.874-.854 1.022l-.958.114v-.564c0-.939-.709-1.451-3.743-2.703l-1.492-.617-.712.805c-.812.919-1.553 2.272-1.553 2.838 0 .487-.165.522 2.099-.449 2.415-1.036 2.053-1.086 4.091.559 2.835 2.287 3.976 3.682 3.976 4.857 0 .374.142.264 1.125-.864 1.01-1.158 1.13-1.249 1.172-.88.127 1.116.191 1.224.541.907.361-.327.449-.257 1.448 1.153l.46.649-1.078.976c-.592.537-1.21.976-1.372.976-.163 0-.277.089-.254.199.025.119-.275.247-.753.32-1.341.204-1.822.596-2.172 1.768l-.305 1.021.436.659.436.659-.667 1.055c-.505.8-.623 1.108-.484 1.275.138.166.085.332-.217.674-.219.249-.41.477-.424.506-.014.029-.408-.141-.875-.378l-.85-.43v2.005h-1.667c-.916 0-1.666.028-1.666.061 0 .315 1.052 5.216 1.137 5.297.089.086 10.882 1.142 11.666 1.142.314 0 .227.302-.119.411-.219.07-.487.587-.875 1.692l-.559 1.592-1.14.572c-.627.315-1.39.763-1.696.996-.437.333-.71.413-1.277.373l-.721-.052-.049-1.031-.049-1.03.799-.1c2.512-.315 2.998-.518 3.483-1.456.52-1.004.401-1.104-1.392-1.173-2.357-.091-13.708-.147-13.708-.068 0 .037.581.502 1.291 1.034 1.633 1.221 1.536 1.035 1.539 2.97l.003 1.647.845-.112c1.162-.155 2.345-.719 3.822-1.823 1.163-.87 1.313-.935 2.166-.936.612 0 .838.05.678.15-.2.127-.205.263-.03.847.115.383.185.716.156.741l-.429.24c-.362.188-.375.274-.375 2.614v2.418l-.458.404-.458.403.452.005.452.006-.101 1.125c-.124 1.396-.059 1.342-1.091.906l-.863-.365-.56.542c-1.046 1.013-1.604 2.451-1.679 4.329l-.066 1.647-2.647 1.326c-1.456.729-2.647 1.364-2.647 1.411 0 .047.301.413.67.813l.669.727-.586.702c-.769.92-.839.768 1.167 2.53 1.882 1.652 2.869 2.787 3.016 3.466.05.233.119.514.152.624.036.117.461.22 1.028.25.9.047.663.124-3.408 1.113l-4.375 1.062-.632 2.021-.632 2.021-.743.052c-.963.068-.851-.123-1.736 2.941-.422 1.463-.859 2.718-.971 2.789-.631.401-.663.24-.598-2.991.06-3.034.052-3.125-.271-3.125-.317 0-.336.127-.38 2.459-.036 1.93-.094 2.458-.271 2.458-.427 0-.584-.437-.634-1.758-.066-1.775-.421-1.086-.578 1.124l-.106 1.494-.99-.115c-.545-.063-1.911-.439-3.036-.836-1.124-.397-2.636-.833-3.36-.971-.723-.137-1.508-.323-1.744-.412-.435-.166-2.198-.446-5.985-.952-1.145-.153-2.559-.425-3.141-.605-.722-.222-1.265-.291-1.709-.216-.855.144-.822.331.1.563.608.153.751.26.753.561.002.205.238.785.524 1.29.969 1.704 1.14 2.069 1.14 2.432 0 .52 1.094 1.335 1.424 1.061.306-.253.304-.18-.017.587-.228.547-.314.61-.708.529-1.857-.383-6.308-.473-7.157-.146l-.875.338v-1.995c0-1.822-.026-1.988-.292-1.911-.16.047-.629.167-1.042.267-1.884.458-3.181 1.029-3.077 1.356.111.352-.234.437-.538.133-.132-.132-.276-.132-.522 0-.511.273-.511.273-.564-1.026-.074-1.827-.474-1.737-2.125.476-.691.926-1.407 1.754-1.59 1.839-.184.085-.313.252-.288.371.026.118-.274.599-.666 1.068-.392.469-.601.809-.463.755l1.098-.437.847-.338 1.183.946c.945.755 1.242 1.107 1.484 1.757.355.956.187.879 2.385 1.089.961.091 1.774.245 1.806.341.17.509 2.746.194 3.366-.411.715-.699 1.74-1.084 1.586-.596-.186.585.075.886.672.774.535-.101.947.129.532.297-.115.046.147.09.583.097.949.016.963-.02.193-.496-.636-.393-.544-.65.235-.655.289-.002.364-.076.299-.294-.338-1.14-.389-1.056 1.315-2.167 1.793-1.167 1.916-1.208 1.916-.635 0 .366-.054.397-.549.317-.474-.077-.577-.029-.75.352-.271.594-.275.589.34.413.757-.217.792-.206.792.258 0 .303-.112.442-.416.519-.453.113-.522.394-.231.938.155.289.143.331-.071.248-.142-.054-.545-.141-.895-.193l-.637-.095.667.316c.371.176.86.28 1.103.235.369-.068.464-.001.616.436l.18.516h18.184v-.41c0-.487.489-.799 1.134-.725.707.082.573.542-.177.604-.545.045-.596.083-.387.291.2.201 1.225.238 6.21.227 3.284-.007 5.879-.05 5.768-.095-.152-.062-.135-.251.073-.769.151-.379.505-1.849.785-3.269l.511-2.581.969-.218c1.591-.358 2.653.577 2.028 1.785-.318.615-.313.842.017.715.193-.074.122.181-.264.945-.59 1.169-.532 1.322.5 1.337.364.005.771.163 1.083.42l.5.411-.363.669-.362.67 3.779-.045 3.78-.045.048-1.292c.038-.998.104-1.291.292-1.291.206 0 .243-.579.243-3.77v-3.769l-1.083.116c-.596.064-1.084.053-1.084-.025 0-.182 1.877-1.648 2.041-1.594.069.023.126-2.835.126-6.35v-6.392l-.871-.541-.872-.542-2.751.279c-3.202.324-5.824.778-6.725 1.163-.573.245-2.272.156-2.562-.134-.052-.053.932-2.327 2.578-5.955l.497-1.097 1.137-.189c1.377-.228 1.379-.226.862.667-.38.656-.793 2.595-.793 3.723 0 .552.354.526 1.254-.093 1.446-.995 2.077-1.164 4.347-1.164h2.074l.165.435c.159.416.956.48 1.534.123.069-.043.124-5.417.121-11.943l-.005-11.865-.417-.304c-.371-.27-.544-.284-1.569-.125-.633.099-1.231.179-1.328.179-.104 0-.176-.411-.176-1.011 0-.885-.037-1.001-.292-.926-.55.162-6.047.82-6.133.734-.047-.047.145-.939.426-1.983.757-2.806.687-2.691.994-1.647.209.713.35.928.634.969.354.051.358.074.116.651-.37.886.034 1.341.817.921.673-.36 5.344-.316 6.25.059.309.128.59.233.625.233.035 0 .063-4.463.063-9.917 0-9.805-.004-9.916-.333-9.916-.208 0-.333-.111-.331-.292.004-.423.264-.769.479-.637.135.084.185-5.744.185-21.727 0-21.661-.003-21.843-.333-22.05-.184-.114-.334-.33-.334-.479 0-.149.15-.461.334-.694.441-.561.514-4.455.083-4.455-.2 0-.25-.249-.25-1.241v-1.241l-.875-.051-.875-.05 1.125-1.117 1.125-1.118v-37.546l-.868.057-.867.057-.226-.794c-.141-.495-.382-.897-.638-1.065-.84-.55-.727 0 .346 1.677l.616.963.371-.349c.375-.352.766-.461.766-.213 0 .34-.941.816-1.462.739-.336-.049-.695.024-.955.194-.397.26-.416.257-.416-.064 0-.276-.109-.338-.598-.338-.596 0-.598-.002-.507-.625.364-2.495.321-3.268-.207-3.772l-.504-.481-.084.397m-394.267.805c0 .372.074.676.164.676.09 0 .361.394.602.875.524 1.045.865 1.459 1.202 1.459.213 0 .209-.046-.026-.305-.42-.464-.347-.529.591-.529.977 0 .915-.144-.246-.571-.941-.347-1.954-1.243-1.954-1.73 0-.19-.075-.392-.166-.449-.101-.062-.167.165-.167.574m2.227-.407c-.216.562.056.785.608.499.597-.309.718-.258.997.414.185.448 1.835.834 1.835.429 0-.811-3.169-2.048-3.44-1.342m386.891.021c-.29.29-.103.583.34.532.273-.032.459-.154.459-.303 0-.262-.595-.433-.799-.229m-356.913.427c.103.309.462.36.462.066 0-.145-.119-.264-.264-.264-.145 0-.234.089-.198.198m332.852.677c.263 1.823.98 2.458 2.77 2.458.177 0 2.336-2.808 2.338-3.041.001-.069-1.171-.125-2.604-.125h-2.606l.102.708m-21.932 1.82c-.635.345-.958.625-.958.829 0 .652 1.141.115 1.838-.864.44-.618.316-.613-.88.035m-343.049.817c-.154.25.048.396.875.631.385.11.921.385 1.191.611.659.555.719.528.659-.296l-.051-.708-1.091-.094c-.599-.052-1.175-.147-1.28-.211-.104-.064-.24-.034-.303.067m367.424 2.725c-2.212.317-2.414.375-2.388.68.016.183.143 1.158.283 2.166.14 1.009.303 2.227.362 2.709l.108.875h1.395c1.588 0 1.449.117 2.135-1.798.321-.894.381-1.232.229-1.284-.114-.038-.653-.195-1.197-.348l-.99-.279.49-.351c1.472-1.057 2.486-2.291 2.131-2.595-.078-.067-1.229.035-2.558.225m30.792.055c.043.131-.092.208-.363.208-.238 0-.561.15-.718.333-.482.564-3.475.396-3.122-.175.053-.087.32-.158.593-.158.292 0 .536-.105.593-.256.128-.332 2.906-.288 3.017.048m-2.959 2.008c0 .721-.233 1.033-.773 1.033-.522 0-.611-.235-.223-.587.181-.164.33-.474.33-.688 0-.28.094-.391.333-.391.275 0 .333.111.333.633m-53.279.467c-.088.228.177.561.446.561.046 0 .188-.066.316-.147.323-.204.102-.681-.316-.681-.189 0-.39.12-.446.267m-.762 2.287c-.669.547-.587.613.75.606l1.208-.007-.577-.493c-.686-.587-.785-.594-1.381-.106m29.152 1.043c-.813.552-.796.57.566.57 1.24 0 1.307-.085.512-.651l-.468-.334-.61.415m.672 1.628c-.122.319.018.442.507.442.292 0 .386-.08.346-.292-.069-.363-.727-.479-.853-.15m-28.686 4.689c-1.433.589-1.369.409-1.579 4.419-.324 6.199-.453 5.228 1.231 9.227.405.962.414.805.165-2.882l-.23-3.401.473-.597c.26-.328.632-.74.825-.914l.352-.318v.943c0 1.137-.163 1.135 1.666.026 1.898-1.151 1.487-1.272 4.109 1.208 2.534 2.396 2.559 2.413 2.556 1.764-.002-.578-.51-1.484-1.992-3.554-1.494-2.088-2.006-3.13-2.006-4.079 0-.416-.056-.756-.125-.755-.069 0-1.171.188-2.45.416-3.402.609-3.389.64-.697-1.609.578-.483-1.048-.408-2.298.106m29.778 3.706c-.114.041-.208.218-.208.394 0 .391.747.451.893.072.105-.273-.353-.585-.685-.466m-26.191 3.697c-.354.228-.087.716.357.653.246-.035.376-.168.376-.384 0-.366-.371-.502-.733-.269m49.316.09c0 .132-.081.29-.181.352-.235.145-.556-.176-.411-.411.163-.264.592-.222.592.059m-5.663 1.106l-.746.645.663-.102c.905-.138 1.025-.236.92-.747l-.09-.442-.747.646m-24.003 7.878c0 .091 2.538 2.195 3.033 2.514l.451.29.844-.79c.794-.742.828-.807.571-1.091-.416-.46-1.402-.745-1.583-.458-.116.182-.145.174-.147-.043-.002-.181-.207-.303-.628-.373-.663-.109-2.541-.146-2.541-.049m32.329 2.936c.207.131.184.221-.15.576-.217.231-.459.38-.537.332-.219-.135-.169-.863.066-.958.307-.124.351-.12.621.05m-52.427 1.572c-2.009 1.226-2.402 1.681-1.557 1.805.764.112 1.479-.361 2.037-1.35.606-1.071.576-1.099-.48-.455m24.139-.122c-.328.133-.243.523.142.645.418.133.734-.13.594-.494-.1-.261-.341-.31-.736-.151m22.452 1.965c.342.412.141.841-.394.841-.598 0-.926-.44-.611-.819.274-.33.741-.34 1.005-.022m-23.66 2.258c0 .244.111.333.417.333.305 0 .416-.089.416-.333 0-.244-.111-.333-.416-.333-.306 0-.417.089-.417.333m27.899 1.597c.432 1.126-.448 2.164-1.276 1.505-.494-.394-.658-1.493-.248-1.658.491-.199 1.425-.105 1.524.153m-45.405 5.063l-.577.493 1.231.007 1.231.007-.629-.5c-.752-.598-.567-.597-1.256-.007m14.086 9.512c-.065.105-.042.266.05.358.237.237.787.098.787-.199 0-.3-.671-.427-.837-.159m1.095 2.989c-.343.212-.072.705.353.642.199-.029.392-.142.427-.25.088-.268-.501-.564-.78-.392m.999 4.143l-.563.47.585.446c.783.598.804.586.804-.47 0-1.054-.06-1.086-.826-.446m-11.782 13.029c0 .779.028 1.098.063.709.035-.39.035-1.027 0-1.417-.035-.39-.063-.071-.063.708m-.007 3.75c.001.55.032.755.069.456.037-.3.036-.75-.002-1-.038-.251-.068-.006-.067.544m42.241-.125c.046.141-.126.209-.529.209-.57 0-.736-.139-.478-.397.184-.184.931-.045 1.007.188m-16.793 1.625c0 .192-.213.25-.916.25-.704 0-.917-.058-.917-.25s.213-.25.917-.25c.703 0 .916.058.916.25m6.066 2.055c-.448.36-1.116.924-1.482 1.255l-.667.601 1.833-.039 1.834-.038.05-.609c.144-1.724-.383-2.118-1.568-1.17m-9.982 2.943c-1.422 1.111-1.338 1.109-2.943.089-.719-.456-1.307-.775-1.307-.708.001.761 1.128 5.115 1.535 5.928.284.569.37.628.768.527.245-.063 1.197-.258 2.113-.434 1.823-.35 3.917-.934 3.917-1.093 0-.334-2.533-5.223-2.706-5.222-.116.001-.736.412-1.377.913m-316.73 8.797c-.872 1.555-2.285 3.548-3.233 4.561-.55.589-.966 1.105-.924 1.147.043.042 1.047.439 2.232.882 1.464.547 2.138.879 2.103 1.033-.282 1.233-.318 1.166.616 1.166h.857l-.252-.584-.504-1.163-.25-.58.834-.423c.957-.485.94-.4.611-3.084l-.194-1.583-.611-.051-.612-.051-.138-.988-.139-.988-.396.706m313.688 2.805c-.434.162-.475.36-.133.644.324.268.925.06.925-.32 0-.381-.304-.505-.792-.324m8.37 1.991c-.146.238.23.659.588.659.359 0 .735-.421.588-.659-.059-.096-.323-.174-.588-.174-.264 0-.528.078-.588.174m-14.328.438c-.785.174-.843.257-.334.484.664.295 2.805.318 2.709.029-.162-.492-1.329-.744-2.375-.513m-360.074 1.526l-.907.285.506.566c.612.686.911.619 1.384-.308.509-.997.493-1.006-.983-.543m24.99.017l-1.083.097 1.708.226 1.709.226v.711c0 .854.374 1.297.655.773.098-.183.178-.75.178-1.26v-.928l-1.042.029c-.573.016-1.529.072-2.125.126m343.443.816c-.675.746.216 1.406 4.292 3.177l2.261.983 1.015-.256c.804-.203 1.048-.341 1.172-.667.129-.34.199-.375.403-.206.365.303.311.114-.338-1.173-.704-1.398-.424-1.393-2.556-.054l-1.766 1.108-.421-.552c-1.831-2.4-3.269-3.236-4.062-2.36m-360.943 1.446c0 .188.117.256.375.22.207-.03.375-.129.375-.22 0-.092-.168-.191-.375-.22-.258-.037-.375.032-.375.22m36.622 2.517c-.182.182.038.399.402.399.196 0 .308-.087.268-.208-.079-.238-.503-.359-.67-.191m237.045.399c0 .311.044.356.2.2.156-.155.156-.244 0-.4-.156-.155-.2-.111-.2.2m86.039.42l-.71.549.706.586c.873.725.965.672.965-.555 0-1.216-.077-1.262-.961-.58m-309.539.159c-.915.566-.922.567-4.163.786l-3.247.219-.227 1.387c-.282 1.725-.311 1.704 1.111.785l1.179-.763 1.269.677c2.052 1.093 2.327 1.33 1.545 1.33-.339 0-.324.043.2.584.737.76.566.831 2.668-1.1 1.736-1.595 1.832-1.717 1.832-2.339 0-.828-.372-1.731-.809-1.965-.421-.225-.286-.265-1.358.399m-20.487.686c-.742.624-.749 1.467-.01 1.209.586-.204.997-.723.997-1.261 0-.501-.352-.483-.987.052m-42.09.286c-.637.971-.535 1.296.699 2.231 1.523 1.154 2.53 1.714 3.086 1.716l.459.002v-2.483l.958-.051.958-.052-1.416-.705c-2.176-1.083-4.275-1.375-4.744-.658m35.41.616c0 .092-.206.168-.458.169-.252.002-.571.075-.708.164-.173.112.162.161 1.083.159l1.333-.003-.393-.328c-.422-.351-.857-.433-.857-.161m328.264 1.884c-.231.303-.575.9-.763 1.326-.204.461-.652 1.028-1.106 1.4-.419.344-.929.87-1.132 1.168-.346.51-.913 1.02-2.006 1.805-.255.184-.848.637-1.319 1.007-.47.371-1.604 1.223-2.521 1.893-1.201.879-1.73 1.377-1.893 1.785-.168.42-.328.565-.621.565-.311 0-.608.318-1.404 1.503l-1.011 1.503.403.372c.382.352.414.536.598 3.367.223 3.43.339 3.814 1.179 3.895.741.071 2.524-.116 2.814-.295.363-.224.062-.845-.41-.845-.373 0-.405-.063-.405-.798v-.799l1.475-.279c3.624-.685 6.335-2.317 8.305-4.999l.582-.791h1.168c.873 0 1.28-.079 1.611-.312.978-.69 3.026-1.543 3.026-1.261 0 .055-.747 1.439-1.659 3.075l-1.659 2.974.579 1.72c.783 2.328.764 2.305 1.438 1.802 2.225-1.659 3.642-2.332 4.914-2.332.679 0 .682.088.042 1.355-.281.557-.463 1.061-.405 1.121.57.584 3.19 2.279 3.289 2.128.067-.103.129-.675.137-1.27.008-.596.066-1.419.128-1.83l.112-.746.485 1.413c.266.777.509 1.442.538 1.479.03.036.921-.182 1.982-.484 1.882-.538 1.925-.56 1.843-.983-.047-.238-.325-1.765-.62-3.393l-.534-2.96-5.143-3.854c-4.842-3.629-5.159-3.838-5.443-3.581-.799.723-.833.366-.108-1.107.321-.651.584-1.208.584-1.236 0-.028-.637-.052-1.414-.052h-1.414l-.422.834c-.233.458-.44.833-.461.833-.65-.002-1.756-.726-2.071-1.355-.473-.943-.469-1.057.054-1.742l.438-.576-.689-.288-.69-.289.107-1.208c.122-1.369.078-1.426-.508-.658m-317.097.602c0 2.258 1.437 3.478 2.744 2.33.788-.692.777-.711-.659-1.049-1.348-.318-1.409-.438-.593-1.176.339-.307.448-.312 2.224-.11 1.027.118 2.317.248 2.867.29l1 .076-1.083-.582-1.083-.582-2.709-.008-2.708-.008v.819m-38.833-.153l-.417.326 1-.002 1-.001-.393-.328c-.489-.407-.664-.406-1.19.005m364.583-.056c-1.458.443-1.802 1.056-.593 1.056.673 0 2.348-.764 2.469-1.126.094-.284-.825-.25-1.876.07m-373.083.806c0 .188.117.257.375.22.206-.029.375-.128.375-.22 0-.091-.169-.19-.375-.22-.258-.036-.375.032-.375.22m36.614.384c-.246.258-.448.558-.448.667 0 .11-.145.345-.323.523-.321.32-1.109 2.633-.951 2.791.045.045.889-.541 1.875-1.302l1.793-1.385-1.033-.304-1.034-.304.44-.577c.528-.691.311-.766-.319-.109m-3.332 1.64c-.174.173.046.393.394.393.178 0 .324-.113.324-.25 0-.247-.512-.349-.718-.143m26.695.493c-.316.317-1.008.752-1.536.966-1.158.471-.905.657.57.419.862-.139 2.655-.849 2.655-1.051 0-.034-.25-.252-.556-.486l-.557-.424-.576.576m316.416 1.983c-.141.368.149.624.629.556.265-.037.394-.165.394-.389 0-.435-.865-.576-1.023-.167m-2.477 1.163l-.666.575 1.458.006c1.691.007 1.671.025.759-.646-.852-.626-.743-.631-1.551.065m-339.916-.171c0 .248 1.084 1.258 1.35 1.258.596 0 .317-.494-.517-.916-.458-.233-.833-.386-.833-.342m334.473 1.71c.999 1.138 1.018 1.082-.304.869-1.36-.219-1.336-.199-1.336-1.136 0-1.311.299-1.262 1.64.267m-308.473-.502c-1.608.078-1.834.156-1.834.637 0 .825 2.693.467 3.168-.422.135-.252.126-.324-.037-.299-.118.017-.702.055-1.297.084m318.893.634c-.141.368.149.623.629.555.265-.037.394-.165.394-.389 0-.435-.865-.576-1.023-.166m-342.995.655c-.114.295.349 1.298.777 1.686.507.459.581-.071.149-1.075-.358-.832-.744-1.087-.926-.611m350.768 1.257l-.583.488.583 1.092c.68 1.274.789 1.158.817-.867.019-1.363-.009-1.387-.817-.713m-27.776.244c.336.335.362.422.151.503-.29.112-.385.052-.434-.269-.018-.123-.092-.317-.164-.432-.21-.337.01-.24.447.198m-303.89 2.666c0 .842.076.895.625.437.476-.398.474-.416-.125-.843l-.5-.356v.762m-1.667.672c0 .692.03.751.305.604.689-.368.74-.627.202-1.01l-.507-.361v.767m-52.999.801l-.001 1.129.417-.273c.513-.336.513-.478-.005-1.318l-.41-.667-.001 1.129m56.707-.707c-.985.396-.003 1.525 1.389 1.597l.986.051-.875-.267c-.817-.25-1.095-.564-.709-.802.842-.521.212-.982-.791-.579m-43.052 1.547c-1.41.945-1.4 1.184.052 1.247l1.125.05v-1.008c0-.554-.023-1.008-.052-1.008-.028 0-.534.324-1.125.719m10.418-.537c-.061.099-.031.261.067.359.208.208.749-.148.597-.393-.127-.205-.529-.185-.664.034m-21.217 1.243c-.501.636-.504.632.96 1.205 2.44.956 3.023.89 2.199-.247-.866-1.196-2.566-1.712-3.159-.958m-2.857.748c0 .6.033.655.305.509.644-.345.731-.62.287-.911-.571-.373-.592-.359-.592.402m18 .471c-1.397.613-1.417.631-1.47 1.263l-.053.641.637-.107c.35-.059 1.026-.155 1.504-.213l.868-.105.192-.936c.106-.515.226-.993.267-1.062.165-.275-.602-.071-1.945.519m38.5 2.94c0 .139.148.25.333.25.186 0 .334-.111.334-.25s-.148-.25-.334-.25c-.185 0-.333.111-.333.25m334.5-.068c0 .1-.15.221-.333.269-.431.113-.423.34.027.704.24.195.298.33.172.408-.104.064-.284-.036-.401-.224-.13-.208-.389-.339-.672-.339-.297 0-.46-.089-.46-.25 0-.167.167-.25.5-.25.334 0 .5-.084.5-.25 0-.139.148-.25.334-.25.183 0 .333.082.333.182m-387.492 2.096c-.005.473-.054.98-.109 1.125-.135.351.144.334.602-.037l.372-.301-.429-.824-.428-.825-.008.862m1.492-.108c0 1.073 1.571.985 2.296-.129l.245-.375h-2.541v.504m363.373.037c-.177.298-.601 1.051-.942 1.673l-.62 1.13 1.128 2.4 1.128 2.399 1.377.345c1.898.476 1.778.544 1.684-.946-.098-1.557-.585-2.842-2.084-5.494-1.242-2.198-1.254-2.209-1.671-1.507m-11.373.376c0 .203.269.25 1.417.25 1.148 0 1.416-.047 1.416-.25s-.268-.25-1.416-.25-1.417.047-1.417.25m-356.92.589c-.065.104-.039.268.057.364.224.224.746.029.655-.245-.093-.278-.565-.358-.712-.119m22.42 1.18v1.018l.542-.093c.298-.052.901-.144 1.34-.206.714-.099.833-.179 1.125-.751.499-.978.487-.987-1.34-.987h-1.667v1.019m18.208-.194l-.708.325v2.335l.625.111c.344.061 1.248.234 2.01.384l1.384.272.873 1.082c1.632 2.022 1.868 1.082.763-3.042l-.168-.625h-3.035l-.518-.584-.517-.583-.709.325m-40.427.949c-.229.229-.105.634.334 1.092.825.861 1.194.473.51-.537-.392-.578-.65-.748-.844-.555m35.403.822c-1.113.35-1.034.404.58.403l1.486-.001-.5-.331c-.572-.379-.582-.38-1.566-.071m-11.517 1.376c0 1.042.026 1.058 1.121.682 1.963-.676 2.033-1.487.129-1.487h-1.25v.805m350.339.771c-.282.34-.072.59.494.59.264 0 .529-.078.588-.174.147-.237-.229-.659-.588-.659-.161 0-.383.109-.494.243m-376.901.262c.114.114.308.117.575.011.379-.152.369-.162-.172-.172-.394-.007-.521.043-.403.161m384.228 1.333c0 .132-.982-.006-1.065-.149-.034-.058-.116-.368-.183-.689l-.12-.583.684.658c.376.363.684.706.684.763m-352.5.003c0 .479.829.992 1.602.992h.783l-.317-.35c-.608-.672-2.068-1.125-2.068-.642m-18.708.112c-.381.057-.458.152-.458.563 0 .736.421.793 1.088.146.783-.759.655-.904-.63-.709m28.282 1.136c.453.342 1.045.338.76-.006-.114-.137-.405-.247-.646-.244-.421.005-.425.014-.114.25m-24.374.278c-.11.11-.2.312-.2.45 0 .194.045.205.2.05.373-.373 1.344-.259 1.134.133-.166.309-.128.333.535.329l.715-.005-.623-.579c-.649-.603-1.379-.76-1.761-.378m49.05.365l-.833.394.75.329c1.719.754 1.846.771 2.726.377.928-.416.898-.479-.513-1.067-1.247-.52-1.106-.517-2.13-.033m-23.083.028c0 1.242.409 2.678.975 3.422.603.792.987 1.061.793.555-.055-.145-.254-.876-.441-1.625-.475-1.902-.477-1.907-.667-1.607-.094.149-.156.168-.157.047-.002-.11.072-.245.164-.302.233-.144-.109-.75-.423-.75-.134 0-.244.117-.244.26m308.578.303c.061.355.304 1.293.54 2.083.684 2.296.73 4.276.112 4.786l-.48.395.667-.224.666-.225-.052-2.397c-.05-2.299-.073-2.439-.564-3.398-.799-1.558-1.028-1.821-.889-1.02m-325.549-.118c.066.338.31.432.617.238.302-.191.091-.516-.335-.516-.224 0-.317.092-.282.278m347.888-.089c-.367.085-1.173.306-1.792.49l-1.125.335v1.243c0 1.499-.173 1.494 1.794.054 2.999-2.195 3.219-2.612 1.123-2.122m-349.973.815c-1.231.382-1.192.319-.752 1.226.581 1.195 1.975.637 1.975-.791 0-.766-.074-.792-1.223-.435m-19.536.01c-.158.255.184.55.497.43.144-.055.262-.215.262-.356 0-.291-.59-.349-.759-.074m387.3.079c.252.06.459.169.459.242 0 .073-.207.207-.459.298l-.75.284c-.246.1-.291.023-.291-.494 0-.505.051-.597.291-.526.161.048.498.136.75.196m-354.875.323c0 .139.148.25.334.25.185 0 .333-.111.333-.25s-.148-.25-.333-.25c-.186 0-.334.111-.334.25m3 .244c0 .454.054.522.375.476.372-.053.668-.803.317-.803-.09 0-.283-.046-.428-.101-.206-.079-.264.014-.264.428m355.5.256c0 .139-.148.25-.333.25-.332 0-.434-.177-.222-.389.203-.203.555-.114.555.139m-363.94 1.073c.059.636.185 1.36.28 1.609l.172.453.509-.484c.695-.66.979-1.259.979-2.059v-.675h-2.048l.108 1.156m318.98-.525l-.378.291.354 1.048c.301.89.408 1.041.711.997.394-.057.404-.23.094-1.759-.196-.966-.237-.996-.781-.577m41.919 1.161c.04.122-.074.208-.278.208-.205 0-.347-.108-.347-.262 0-.307.52-.262.625.054m-385.659.908c.156.156.245.156.4 0 .156-.156.111-.2-.2-.2s-.355.044-.2.2m377.7.05c0 .137-.112.25-.25.25-.137 0-.25-.113-.25-.25 0-.138.113-.25.25-.25.138 0 .25.112.25.25m-14.666 1.917v1.833h.689c.907 0 1.831-.287 2.411-.75l.469-.374-.326-.724c-.577-1.279-1.269-1.819-2.332-1.819h-.911v1.834m-332.756-1.491c-.066.107-.024.254.094.327.276.171.695.013.613-.232-.088-.264-.563-.328-.707-.095m338.12.83c-.452.422-.461.731-.031 1.161.662.662 2.167.257 2.167-.584 0-.842-1.435-1.229-2.136-.577m-347.444-.011c-.322.116-.321.124.031.312.467.25.549.243.549-.047 0-.325-.185-.409-.58-.265m-4.323 1.483c-.119.192.999 1.107 1.657 1.357.767.292.918.135.672-.699l-.212-.719-1.009-.05c-.555-.027-1.054.023-1.108.111m68.443.476c-.691.086-1.04.715-1.04 1.875v.845l1.38.89 1.38.891 3.411.404c2.706.32 3.423.36 3.466.19.101-.403-1.142-2.7-2.142-3.958l-.999-1.258-2.457.027c-1.351.015-2.7.057-2.999.094m-90.207.879c0 .215.084.333.208.292.115-.038.209-.169.209-.292 0-.122-.094-.253-.209-.291-.124-.042-.208.077-.208.291m4.588-.174c-.114.184.471.59 1.079.748.381.099.368.066-.161-.399-.617-.544-.763-.599-.918-.349m-2.495.223c.05.131-.145.297-.505.427-.324.117-.588.283-.588.368 0 .209 0 .209 1.069-.2.963-.369 1.12-.536.667-.709-.435-.167-.731-.115-.643.114m32.358 2.389c-.057.058.008.323.146.589.233.45.225.521-.112.995l-.363.509.397.389c.359.35.811.484 1.462.432.542-.043-.274-2.672-.904-2.914-.342-.132-.494-.132-.626 0m-10.451 1.062c0 .215.084.333.208.292.115-.038.209-.169.209-.292 0-.122-.094-.253-.209-.291-.124-.042-.208.077-.208.291m-19.247.023c-1.284.3-1.042.477.653.477h1.639l-.424-.333c-.456-.359-.829-.388-1.868-.144m17.58.144c0 .092.188.167.417.167.229 0 .417-.075.417-.167 0-.092-.188-.167-.417-.167-.229 0-.417.075-.417.167m-6.833 1.757c-2.839 1.863-2.735 1.709-1.682 2.482 1.34.984 2.205 2.296 2.584 3.92l.237 1.018-.611-.111c-.79-.142-.847-.208-.444-.507.327-.242.324-.255-.167-.682l-.5-.436-.052.712c-.05.681-.072.706-.5.599-.626-.157-.621-.096-.145-1.616.521-1.667.522-1.666-.523-.771-.747.639-.84.794-.851 1.401l-.013.683-.926-.159c-1.119-.193-1.163-.16-.833.629l.259.643c0 .012-.296.025-.656.029-.754.009-.838-.144-.841-1.53l-.003-.856-1.154-.686c-1.393-.828-1.346-.824-1.346-.102 0 .772.013.777-1.604-.691-.772-.701-1.424-1.244-1.45-1.208-.026.036-.407.494-.846 1.018l-.798.954.299.796c.419 1.117.888 1.714 1.347 1.714.435 0 .446.04.231.793l-.155.54h3.488c3.209 0 3.489-.023 3.493-.291.005-.278.014-.278.175 0 .154.263.52.291 3.83.291 3.509 0 3.652-.012 3.469-.306-.328-.524.033-1.289.578-1.223.315.038.443-.023.443-.209 0-.236-.193-.336-.541-.281-.202.031-.15-.226.291-1.449.23-.636.417-1.203.417-1.26 0-.058-.525-.105-1.167-.105h-1.166v-3.4450000000000003l1.333-.305c1.751-.4 1.766-.376-.991-1.539-.051-.021-1.18.674-2.509 1.546m-16.333-1.021c0 .145.118.264.264.264.294 0 .243-.359-.066-.462-.109-.036-.198.053-.198.198m53.685.302c-.415.201-.869.588-1.05.894-.554.94-1.01 1.131-1.711.717-.704-.415-.773-.216-.133.388.837.789 1.694 1.035 2.14.616l.377-.354.054.476c.183 1.598 1.57-.663 1.625-2.65.016-.564-.277-.584-1.302-.087m29.815.295c0 .419.066.5.405.5.26 0 .533-.179.761-.5l.356-.5h-.761c-.735 0-.761.018-.761.5m280.416.167c.252.279.514.333 1.59.333 1.056 0 1.58.106 2.917.59 2.356.853 2.386.895.66.932-.825.018-1.8.053-2.167.079-1.286.088-4.75-1.457-4.75-2.119 0-.311 1.44-.158 1.75.185m-358.017.067c-.238.621.009 1.349.476 1.402.446.052.458.032.458-.791 0-.859-.67-1.297-.934-.611m-6.233.453c0 .441.038.489.247.316.183-.152.203-.286.077-.52-.239-.447-.324-.394-.324.204m38.574-.265c.412.312.593.31.593-.005 0-.163-.16-.248-.458-.245-.439.005-.445.016-.135.25m48.301.012c.84.258.944.399.542.733-.455.377-.262.609.739.887l.988.275 1.44-.848c1.738-1.023 1.737-1.025-.266-.66l-1.598.291-.529-.472c-.43-.384-.678-.471-1.318-.461l-.789.011.791.244m-59.041.477c0 .261.62.369.909.157.297-.217.276-.234-.294-.234-.338 0-.615.035-.615.077m56.041.631c.105.315.625.36.625.054 0-.155-.142-.262-.347-.262-.204 0-.318.086-.278.208m-22.208 1.039c0 .045.339.167.753.271.931.234 1.046.403.598.88-.575.612-.408.635.664.094.559-.282 1.496-.661 2.084-.843 1.482-.457 1.403-.483-1.516-.483-1.42 0-2.583.037-2.583.081m6.167.25c0 .641.849 1.367 1.529 1.307l.609-.054-.915-.792c-1.008-.873-1.223-.954-1.223-.461m303.166-.1c0 .438-1.265.57-2.35.245-.976-.293-.613-.476.944-.476 1.086 0 1.406.053 1.406.231m12.465 3.466c-.118.077-.627.26-1.131.407-.505.147-1.159.414-1.456.593-.548.333-.878.293-.878-.105 0-.57-.56-.937-1.161-.762-.709.206-4.218.675-4.915.657l-.507-.013.448-.164c.261-.095.47-.313.5-.519.046-.316.254-.387 1.885-.651 3.1-.5 3.293-.587 3.563-1.592.219-.82.728-1.248 1.162-.98.07.043.685-.016 1.368-.131l1.241-.21.047 1.665c.035 1.217-.009 1.702-.166 1.805m-383.544-3.093c-.148.148-.227.313-.174.365.053.053.261-.068.462-.27.201-.201.279-.365.174-.365-.106 0-.314.121-.462.27m34.298-.02l.206.739c.065.223.132.598.15.833.018.235.19.953.383 1.594.618 2.058.624 1.977-.171 2.376l-.703.354 1.291.01c.711.006 1.29-.046 1.288-.115-.002-.068-.069-.406-.149-.75-.19-.817-.021-.788.727.125.475.579.727.75 1.104.75h.489v-1.453c0-1.364.016-1.431.259-1.084.38.543 2.941 0 2.901-.615-.051-.787-3.126-1.681-5.785-1.681-.495 0-.754-.136-1.346-.708-.52-.503-.707-.612-.644-.375m12.448 1.156c0 .683.075 1.287.167 1.344.277.171.189.352-.276.564-.308.141-.495.149-.616.027-.096-.096-.348-.175-.558-.175-.354 0-.384-.071-.384-.916v-.917h-.666c-.785 0-.809.1-.326 1.361.305.797.424.925 1.125 1.208.431.175 1.446.612 2.256.972l1.472.656 1.639-.372c2.468-.559 2.457-.504.554-2.688-1.088-1.249-1.14-1.27-2.06-.8l-.66.336v-1.84h-1.6669999999999998v1.24m330.833-.344c0 .298-.113.419-.458.49-.252.052-.932.205-1.51.342l-1.051.247.051-.426c.098-.809 2.968-1.44 2.968-.653m-6.833.213c0 .308-.197.611-.647.996-.61.523-.642.596-.562 1.305.106.934-.204 1.121-.946.572-.535-.395-.644-.946-.415-2.092.203-1.014 2.57-1.734 2.57-.781m-307.333.54c0 .272.472.335.675.091.164-.198.123-.24-.238-.24-.241 0-.437.067-.437.149m305.375 3.486c.424.364.359.532-.209.532-.446 0-.5-.054-.5-.51 0-.532.111-.535.709-.022m.736-.024c-.049.049-.177.035-.285-.031-.145-.09-.137-.158.031-.262.222-.138.438.11.254.293m1.555-.114c0 .292-.048.308-.421.138-.306-.14-.363-.23-.208-.328.366-.232.629-.153.629.19m-340.416.422l-1.667.551 2.042.015 2.041.015v-.583c0-.739-.175-.739-2.416.002" fill="#E2DEDB"/></svg>
