<svg width="400" height="224.956" xmlns="http://www.w3.org/2000/svg" display="block"><path d="M0 1.139v.806l3.458 1.923c1.902 1.058 15.121 8.394 29.375 16.301 37.874 21.01 58.626 32.532 61.084 33.914 1.191.67 7.416 4.12 13.833 7.668 6.417 3.547 11.892 6.584 12.167 6.749.275.164 6.387 3.56 13.583 7.545 7.196 3.984 19.271 10.677 26.833 14.873 21.981 12.194 38.057 21.1 38.417 21.284.641.328-.118-.294-7.5-6.134-4.033-3.191-11.308-8.951-16.167-12.799-4.858-3.849-10.064-7.97-11.569-9.159-1.505-1.189-3.688-2.919-4.852-3.844-1.164-.926-4.012-3.183-6.329-5.016-2.317-1.833-5.916-4.683-7.997-6.333-2.082-1.65-5.681-4.5-7.999-6.334-2.318-1.833-5.725-4.533-7.572-6-1.847-1.466-5.111-4.054-7.254-5.75-2.142-1.696-5.409-4.283-7.259-5.75-3.795-3.007-7.472-5.919-14.502-11.483-2.658-2.103-8.096-6.414-12.083-9.578-3.988-3.164-9.238-7.327-11.667-9.251-2.429-1.924-5.279-4.185-6.333-5.025-1.055-.839-4.155-3.3-6.89-5.469l-4.974-3.944h-57.803v.806m110.702-.514c.139.16 1.438 1.792 2.887 3.625s3.472 4.383 4.496 5.667c1.023 1.283 7.924 9.983 15.335 19.333 7.411 9.35 14.459 18.237 15.662 19.75 1.203 1.512 5.664 7.137 9.914 12.5 4.25 5.362 8.415 10.612 9.255 11.667.84 1.054 4.589 5.779 8.332 10.5 7.294 9.2 9.185 11.584 12.834 16.179 1.283 1.617 3.977 5.012 5.986 7.546 2.01 2.534 3.678 4.583 3.707 4.554.029-.029-1.681-3.16-3.799-6.958-2.119-3.798-5.483-9.83-7.477-13.405-1.994-3.575-5.594-10.025-8.001-14.333-2.406-4.308-7.303-13.083-10.881-19.5-3.579-6.417-8.265-14.817-10.415-18.667-2.149-3.85-5.539-9.925-7.533-13.5-8.735-15.662-11.698-20.972-12.853-23.038l-1.234-2.205-13.234-.003c-12.59-.004-13.222.011-12.981.288m56.798-.24c0 .028.481 1.734 1.07 3.791.588 2.058 6.219 21.741 12.513 43.741s12.992 45.415 14.883 52.034c1.891 6.618 3.464 12.008 3.495 11.977.031-.031-.137-1.734-.374-3.784s-.651-5.64-.919-7.977c-.269-2.338-.68-5.9-.915-7.917-.234-2.017-.61-5.279-.836-7.25-.225-1.971-.638-5.533-.917-7.917-.279-2.383-.692-5.946-.917-7.916-.226-1.971-.602-5.234-.836-7.25-.235-2.017-.646-5.58-.915-7.917-.268-2.337-.68-5.9-.915-7.917-.235-2.016-.611-5.279-.836-7.25-.225-1.971-.862-7.483-1.415-12.25-.553-4.766-1.191-10.279-1.416-12.25-.837-7.304-1.242-10.792-1.437-12.375l-.2-1.625h-9.556c-5.257 0-9.557.023-9.557.052m45.092.157c-.035.114-.143.958-.241 1.875-.097.916-.405 3.616-.684 6-.279 2.383-.692 5.945-.918 7.916-.225 1.971-.601 5.234-.836 7.25-.234 2.017-.645 5.579-.913 7.917-.268 2.337-.68 5.9-.914 7.917-.235 2.016-.612 5.279-.837 7.25-.226 1.97-.638 5.533-.917 7.916-.278 2.384-.69 5.946-.915 7.917-.225 1.971-.638 5.533-.917 7.917-.279 2.383-.691 5.945-.915 7.916-.225 1.971-.6 5.234-.834 7.25-.235 2.017-.647 5.579-.916 7.917-.269 2.337-.715 6.2-.991 8.583-.275 2.384-.615 5.346-.754 6.584l-.339 3c-.115 1.011-.084.905 6.333-21.75.883-3.117 2.608-9.192 3.833-13.5 2.869-10.094 6.011-21.158 7.833-27.584 1.524-5.377 3.461-12.202 7.144-25.166 1.237-4.354 3.044-10.729 4.015-14.167 1.511-5.344 1.948-6.879 2.529-8.875.08-.275-.444-.292-9.349-.292-7.401 0-9.447.045-9.497.209m48.52 1.416c-.499.894-2.089 3.763-3.533 6.375-1.445 2.613-3.882 7-5.415 9.75-1.534 2.75-4.533 8.15-6.664 12-2.131 3.85-4.422 7.975-5.092 9.167-.669 1.192-9.854 17.729-20.411 36.75-10.557 19.021-19.378 34.902-19.603 35.292-.725 1.257-.275.771 2.388-2.584l4.469-5.625c1.021-1.283 6.166-7.77 11.435-14.416 11.772-14.848 18.225-22.983 20.229-25.5.839-1.055 5.153-6.492 9.585-12.084 4.433-5.591 8.894-11.216 9.915-12.5 1.02-1.283 3.609-4.546 5.752-7.25 4.617-5.826 6.936-8.749 16.593-20.916 4.001-5.042 7.422-9.373 7.602-9.625l.327-.459h-26.67l-.907 1.625m69.055 7.306c-6.188 4.906-13.679 10.848-16.647 13.203-9.26 7.349-12.04 9.555-14.528 11.521-3.608 2.854-5.125 4.056-8.242 6.531-1.558 1.238-8.233 6.526-14.833 11.752-13.299 10.529-41.04 32.499-45.584 36.102l-5.5 4.358-7.5 5.941c-2.704 2.142-6.904 5.467-9.333 7.389-7.131 5.644-7.807 6.187-7.763 6.232.024.023 5.174-2.818 11.445-6.314s13.989-7.797 17.151-9.558c7.907-4.403 20.488-11.414 29.167-16.253 3.987-2.224 10.512-5.861 14.5-8.083 3.987-2.221 10.85-6.046 15.25-8.499 4.4-2.454 11.3-6.3 15.333-8.548 11.822-6.589 20.994-11.702 28.834-16.076 20.462-11.414 48.169-26.855 60.583-33.762l6.583-3.663.052-.602.052-.602-28.885.005-28.885.005-11.25 8.921m-9.167 68.751c-42.946 12.276-87.601 25.039-99.233 28.361-11.632 3.322-20.991 6.064-20.798 6.093.193.029 1.348-.064 2.566-.205l6.548-.765c2.384-.278 5.946-.691 7.917-.916 1.971-.226 5.233-.602 7.25-.836 2.017-.235 5.579-.646 7.917-.914 2.337-.268 5.9-.679 7.916-.913 2.017-.234 5.279-.611 7.25-.837 1.971-.226 5.871-.675 8.667-.999 5.58-.646 8.748-1.012 15.167-1.751 4.738-.545 7.744-.892 15.083-1.739 2.75-.317 7.662-.883 10.917-1.256 3.254-.374 7.491-.864 9.416-1.089 4.918-.575 9.925-1.154 15.167-1.752 2.475-.283 6.037-.695 7.917-.917 1.879-.222 7.016-.821 11.416-1.33 4.4-.51 9.238-1.073 10.75-1.252 1.513-.179 3.763-.438 5-.575 1.238-.137 6.15-.702 10.917-1.256 4.767-.554 10.279-1.192 12.25-1.417 1.971-.226 5.233-.603 7.25-.837 2.017-.235 5.27-.608 7.23-.83 1.959-.222 3.591-.432 3.625-.466.035-.035.044-7.681.021-16.993l-.043-16.93-78.083 22.321m-321-5.098c0 9.212.028 16.75.062 16.75s1.703.189 3.708.419c2.006.231 5.259.605 7.23.83 1.971.225 5.533.638 7.917.917 2.383.279 5.946.692 7.916.918 1.971.225 5.196.596 7.167.824 1.971.227 4.933.567 6.583.753 1.65.187 4.238.488 5.75.669 1.513.181 6.35.745 10.75 1.253 4.4.509 9.575 1.107 11.5 1.331 1.925.223 5.488.635 7.917.915 2.429.28 5.692.657 7.25.838 2.57.299 5.477.634 16.667 1.922 4.89.563 9.727 1.121 15.083 1.742 5.663.656 8.882 1.027 15.167 1.751 2.795.321 6.733.775 8.75 1.008l7.25.836c1.97.227 5.158.597 7.083.823 1.925.225 6.162.715 9.417 1.088 3.254.374 8.166.939 10.916 1.257 8.635.997 10.717 1.236 15.084 1.738 2.337.268 5.224.603 6.415.744 4.207.499 4.289.529-7.749-2.88-7.126-2.018-16.269-4.609-23.916-6.779-3.759-1.066-8.296-2.352-10.084-2.858-1.787-.506-7.337-2.08-12.333-3.498-4.996-1.419-10.546-2.992-12.333-3.497-1.788-.504-4-1.134-4.917-1.398-.917-.265-3.392-.968-5.5-1.562-4.13-1.164-11.55-3.267-21.25-6.021-10.962-3.113-17.162-4.87-22.917-6.493-3.116-.88-6.304-1.784-7.083-2.01-4.533-1.313-8.386-2.415-13.417-3.836-3.116-.88-8.404-2.378-11.75-3.328l-11.75-3.333c-3.116-.883-8.141-2.308-11.166-3.167-3.025-.858-7.788-2.208-10.584-2.999-2.796-.79-5.853-1.658-6.795-1.927-.941-.27-1.785-.49-1.875-.49-.105 0-.163 5.932-.163 16.75m196.25 40.184c-1.835.224-5.38.637-13.5 1.57-7.888.906-11.628 1.337-15.167 1.748-5.084.59-17.035 1.97-23 2.656-2.016.232-5.279.609-7.25.837-3.262.378-6.833.791-17.416 2.011l-7.167.828-7.167.827c-10.68 1.229-14.09 1.622-16.666 1.92-1.559.181-4.446.514-6.417.741-1.971.228-5.533.64-7.917.917-2.383.277-6.321.731-8.75 1.009-2.429.279-5.991.692-7.916.918-3.341.394-6.155.72-14.334 1.661-10.68 1.229-14.09 1.622-16.666 1.921l-6.417.741-7.917.914c-2.383.275-6.02.693-8.083.929-2.062.235-3.919.464-4.125.509l-.375.082v33.868l.458-.094c.252-.051 17.671-5.017 38.709-11.035 21.037-6.017 40.05-11.452 42.25-12.078 4.459-1.268 12.623-3.601 22.166-6.334 12.542-3.593 18.211-5.213 20.75-5.929 17.725-5.003 74.627-21.383 74.25-21.374-.275.007-1.325.113-2.333.237m4.667-.004l2.25.648c.779.225 3.948 1.124 7.041 1.998 5.828 1.647 13.483 3.815 21.542 6.101 2.567.728 6.917 1.959 9.667 2.736 2.75.777 5.637 1.6 6.416 1.829.779.229 3.442.985 5.917 1.68 2.475.696 6.975 1.968 10 2.827 8.886 2.523 18.668 5.299 23.5 6.667 2.475.7 7.237 2.051 10.583 3.001 3.346.949 8.371 2.374 11.167 3.166 5.056 1.431 8.806 2.495 24.083 6.834 13.445 3.819 19.916 5.656 25.834 7.333 3.116.883 8.404 2.383 11.75 3.333 3.345.95 8.633 2.449 11.75 3.331 11.681 3.306 16.339 4.633 16.541 4.709.166.063.209-3.354.209-16.739v-16.817l-1.875-.193c-1.032-.106-3.825-.423-6.209-.704-2.383-.281-5.946-.696-7.916-.921-1.971-.225-5.234-.601-7.25-.834-10.819-1.251-14.301-1.653-23.75-2.74-1.604-.185-4.867-.564-7.25-.843-2.384-.278-5.946-.691-7.917-.916-1.971-.225-5.533-.637-7.917-.916-2.383-.279-5.946-.692-7.916-.918-5.68-.65-11.943-1.371-15.917-1.833-2.017-.234-5.279-.61-7.25-.834-1.971-.224-5.533-.636-7.917-.915-2.383-.279-5.946-.692-7.916-.918-1.971-.225-5.234-.6-7.25-.834-2.017-.233-5.58-.644-7.917-.913-4.055-.468-8.516-.983-16.583-1.917-2.017-.233-5.28-.609-7.25-.835-1.971-.226-5.234-.602-7.25-.837-2.017-.234-5.579-.645-7.917-.913s-5.9-.68-7.917-.914c-2.016-.235-5.279-.612-7.25-.837-1.971-.226-5.526-.636-7.901-.913-4.815-.561-5.212-.584-4.015-.239m-5 1.678c-1.559.878-6.096 3.413-10.084 5.634-3.987 2.221-10.925 6.087-15.416 8.592-4.492 2.504-11.354 6.329-15.25 8.498-3.896 2.17-10.721 5.972-15.167 8.451-12.523 6.98-22.691 12.647-37.833 21.086-7.654 4.266-17.517 9.766-21.917 12.222-4.4 2.457-11.187 6.241-15.083 8.41-3.896 2.169-11.096 6.18-16 8.913l-16 8.916c-3.896 2.171-12.709 7.08-19.584 10.908-14.87 8.281-13.583 7.521-13.583 8.025v.403h58.104l4.24-3.362c2.331-1.849 5.252-4.161 6.489-5.138 1.238-.977 4.163-3.295 6.5-5.152 2.338-1.858 6.275-4.977 8.75-6.932 2.475-1.955 6.413-5.074 8.75-6.93 2.338-1.857 5.263-4.175 6.5-5.152 1.238-.977 4.163-3.296 6.5-5.153 2.338-1.856 6.088-4.828 8.334-6.604 2.245-1.776 5.658-4.478 7.583-6.005 5.869-4.654 15.375-12.185 21.417-16.967 1.42-1.125 5.358-4.247 8.75-6.938 3.391-2.691 7.329-5.812 8.75-6.936 1.42-1.123 4.317-3.416 6.436-5.095 5.479-4.341 11.786-9.336 15.217-12.052 1.621-1.284 4.886-3.871 7.255-5.75 2.369-1.88 5.428-4.305 6.797-5.389 1.369-1.085 2.521-1.94 2.561-1.901.039.04-2.448 3.252-5.527 7.139l-8.239 10.401c-2.643 3.336-12.675 15.983-16.659 21-1.165 1.466-4.017 5.066-6.338 8-2.322 2.933-4.911 6.195-5.755 7.25-.843 1.054-6.733 8.479-13.088 16.5-6.355 8.021-12.388 15.633-13.408 16.916-1.019 1.284-3.459 4.359-5.421 6.834-5.157 6.504-8.249 10.4-11.128 14.025-1.395 1.756-2.537 3.237-2.537 3.293 0 .055 5.974.081 13.275.058l13.274-.043 15.221-27.417c8.371-15.079 16.078-28.954 17.127-30.833 1.049-1.879 6.609-11.892 12.354-22.25 5.746-10.358 10.635-19.171 10.865-19.583l3.324-5.965c2.588-4.644 3.014-5.553 2.592-5.529-.063.004-1.39.725-2.948 1.602m4.583-1.406c.137.139 2.425 1.972 5.083 4.075 4.579 3.621 13.724 10.865 50.25 39.806 8.663 6.864 22.425 17.768 30.584 24.232 8.158 6.464 18.245 14.458 22.416 17.764 4.171 3.307 11.369 9.011 15.996 12.675 4.626 3.664 10.176 8.065 12.333 9.78l3.921 3.118 29.042.007 29.042.007v-.711c0-.701-.016-.72-1.042-1.279-.573-.313-6.742-3.731-13.708-7.598-6.967-3.866-20.955-11.625-31.084-17.243-10.129-5.618-22.091-12.257-26.583-14.753-4.492-2.496-15.442-8.572-24.333-13.502-19.057-10.566-45.409-25.184-73-40.494-28.109-15.598-29.258-16.229-28.917-15.884m-1.324.75c-.11.439-1.287 4.623-2.616 9.298-4.809 16.919-6.565 23.101-8.142 28.666-2.656 9.373-3.931 13.866-6.835 24.084-2.877 10.127-4.123 14.517-6.834 24.083-4.353 15.357-6.132 21.624-6.506 22.917-.225.779-.41 1.473-.41 1.541 0 .069 4.238.125 9.417.125 7.051 0 9.417-.048 9.417-.194 0-.106.149-1.4.331-2.875.182-1.474.636-5.343 1.008-8.597.641-5.594 1.412-12.288 2.17-18.834.186-1.604.559-4.829.828-7.166.269-2.338.681-5.9.916-7.917.234-2.017.645-5.579.913-7.917.268-2.337.679-5.9.914-7.916.234-2.017.61-5.28.836-7.25.225-1.971.638-5.534.917-7.917s.692-5.946.917-7.917c.226-1.971.602-5.233.836-7.25.235-2.016.646-5.579.915-7.916.268-2.338.682-5.928.919-7.978.434-3.757.457-4.536.089-3.07m.865-.702c.222.421 4.363 7.856 6.126 11 1.08 1.925 4.345 7.775 7.257 13s7.43 13.325 10.041 18c2.61 4.675 6.377 11.425 8.37 15l7.251 13 6.833 12.25c1.764 3.162 5.175 9.275 7.581 13.583 2.406 4.308 5.347 9.577 6.535 11.708l2.161 3.875h13.172c10.515 0 13.14-.042 13.009-.208-.729-.926-9.665-12.204-11.126-14.042-1.02-1.283-4.62-5.821-8.001-10.083-3.38-4.263-6.83-8.613-7.667-9.667l-7.667-9.666c-3.38-4.263-6.981-8.8-8.001-10.084-1.021-1.283-5.482-6.908-9.915-12.5-4.433-5.591-8.895-11.216-9.916-12.5-1.022-1.283-7.204-9.083-13.739-17.333-10.822-13.661-12.573-15.844-12.304-15.333m-.195.645c-.011.425.335 3.543 1.484 13.355.183 1.558.56 4.82.839 7.25.279 2.429.689 5.991.912 7.916l.916 7.917.917 7.917c.224 1.925.596 5.15.828 7.166.232 2.017.609 5.279.837 7.25.381 3.289.888 7.677 2.011 17.417l.829 7.167.917 7.916c.281 2.429.69 5.954.909 7.834.219 1.879.609 5.273.867 7.541l.47 4.125h9.542c5.249 0 9.543-.03 9.543-.067 0-.038-3.257-11.456-7.238-25.375-3.98-13.919-11.108-38.845-15.838-55.391-9.555-33.423-8.727-30.586-8.745-29.938" fill="#222d5b"/></svg>
